<svg width="175" height="274" viewBox="0 0 175 274" fill="none" xmlns="http://www.w3.org/2000/svg">
<path d="M92.3379 181.046V117.11C92.3379 114.159 93.9025 111.208 96.7709 109.487L160.658 71.6173C166.916 67.9287 175 72.1091 175 79.2404V134.324C175 138.996 172.392 143.176 168.22 145.635L99.3785 184.981C96.2494 186.702 92.3379 184.489 92.3379 181.046Z" fill="#1A457A"/>
<path d="M82.9504 269.572V203.915C82.9504 200.964 81.3859 198.013 78.5175 196.292L10.4581 155.963C6.02516 153.258 0.288361 156.455 0.288361 161.127V223.588C0.288361 226.539 1.85294 229.489 4.72134 231.211L75.9098 273.261C79.039 275.228 82.9504 273.015 82.9504 269.572Z" fill="#1A457A"/>
<path d="M92.3379 19.7308V93.9949C92.3379 97.4376 96.5101 99.6508 99.6393 97.6835L152.835 64.9778C157.268 62.2728 157.529 56.371 153.096 53.4201L99.9001 16.0422C96.7709 13.829 92.3379 16.0422 92.3379 19.7308Z" fill="#C87137"/>
<path d="M82.6621 179.99V116.054C82.6621 113.103 81.0975 110.152 78.2291 108.43L14.342 70.5607C8.08367 66.8721 0 71.0525 0 78.1838V133.267C0 137.939 2.60764 142.12 6.77986 144.579L75.6215 183.924C78.7506 185.645 82.6621 183.432 82.6621 179.99Z" fill="#2E6CB5"/>
<path d="M83.1521 5.33986V92.0837C83.1521 96.1049 78.3229 98.69 74.7009 96.3922L13.1277 58.1904C7.99656 55.0309 7.69473 48.1373 12.8258 44.6905L74.3991 1.03139C78.021 -1.55369 83.1521 1.03139 83.1521 5.33986Z" fill="#4183D7"/>
<path d="M92.4217 6.2549V92.9987C92.4217 97.02 97.2675 99.6051 100.902 97.3072L162.686 59.1055C167.834 55.9459 168.137 49.0524 162.989 45.6056L101.205 1.94643C97.5704 -0.638648 92.4217 1.94643 92.4217 6.2549Z" fill="#4183D7"/>
</svg>
