<svg width="350" height="582" viewBox="0 0 350 582" fill="none" xmlns="http://www.w3.org/2000/svg">
<path d="M184.676 383.967V248.37C184.676 242.112 187.805 235.854 193.542 232.203L321.316 151.888C333.833 144.065 350 152.931 350 168.055V284.877C350 294.786 344.785 303.652 336.44 308.868L198.757 392.312C192.499 395.963 184.676 391.269 184.676 383.967Z" fill="#EA6611"/>
<path d="M165.901 571.717V432.47C165.901 426.211 162.772 419.953 157.035 416.302L20.9162 330.772C12.0503 325.035 0.57666 331.815 0.57666 341.724V474.192C0.57666 480.45 3.70582 486.708 9.44263 490.359L151.82 579.54C158.078 583.712 165.901 579.019 165.901 571.717Z" fill="#EA6611"/>
<path d="M184.676 41.8456V199.347C184.676 206.648 193.02 211.342 199.279 207.17L305.67 137.807C314.536 132.07 315.058 119.553 306.192 113.295L199.8 34.0227C193.542 29.329 184.676 34.0227 184.676 41.8456Z" fill="#C87137"/>
<path d="M165.324 381.727V246.13C165.324 239.872 162.195 233.614 156.458 229.963L28.684 149.648C16.1673 141.825 0 150.691 0 165.815V282.637C0 292.546 5.21527 301.412 13.5597 306.627L151.243 390.072C157.501 393.723 165.324 389.029 165.324 381.727Z" fill="#FE7F2D"/>
<path d="M166.304 11.3249V195.294C166.304 203.822 156.646 209.304 149.402 204.431L26.2553 123.412C15.9931 116.711 15.3894 102.091 25.6516 94.7809L148.798 2.18741C156.042 -3.2951 166.304 2.18741 166.304 11.3249Z" fill="#FF9B5A"/>
<path d="M184.843 13.2653V197.234C184.843 205.762 194.535 211.245 201.804 206.372L325.372 125.352C335.669 118.651 336.275 104.031 325.977 96.7213L202.409 4.12781C195.141 -1.3547 184.843 4.12781 184.843 13.2653Z" fill="#FF9B5A"/>
</svg>
