<svg width="40" height="67" viewBox="0 0 40 67" fill="none" xmlns="http://www.w3.org/2000/svg">
<path d="M21.1058 43.882V28.3852C21.1058 27.6699 21.4635 26.9547 22.1191 26.5375L36.7219 17.3586C38.1523 16.4646 40 17.4778 40 19.2063V32.5574C40 33.6899 39.404 34.7031 38.4503 35.2992L22.7151 44.8356C21.9999 45.2529 21.1058 44.7164 21.1058 43.882Z" fill="#EA6611"/>
<path d="M18.9601 65.3391V49.4251C18.9601 48.7098 18.6025 47.9946 17.9469 47.5774L2.39044 37.8025C1.37719 37.1468 0.065918 37.9217 0.065918 39.0541V54.1933C0.065918 54.9086 0.423537 55.6238 1.07917 56.041L17.3508 66.2332C18.0661 66.71 18.9601 66.1736 18.9601 65.3391Z" fill="#EA6611"/>
<path d="M21.1058 4.78236V22.7825C21.1058 23.6169 22.0595 24.1534 22.7747 23.6765L34.9338 15.7493C35.947 15.0937 36.0066 13.6632 34.9934 12.948L22.8343 3.88831C22.1191 3.35188 21.1058 3.88831 21.1058 4.78236Z" fill="#C87137"/>
<path d="M18.8942 43.626V28.1292C18.8942 27.4139 18.5366 26.6987 17.8809 26.2815L3.27817 17.1026C1.8477 16.2085 0 17.2218 0 18.9503V32.3014C0 33.4339 0.596031 34.4471 1.54968 35.0431L17.2849 44.5796C18.0001 44.9969 18.8942 44.4604 18.8942 43.626Z" fill="#FE7F2D"/>
<path d="M19.0062 1.29428V22.3193C19.0062 23.2939 17.9023 23.9205 17.0745 23.3636L3.00057 14.1042C1.82774 13.3384 1.75875 11.6675 2.93158 10.8321L17.0055 0.24999C17.8333 -0.376583 19.0062 0.24999 19.0062 1.29428Z" fill="#FF9B5A"/>
<path d="M21.125 1.51605V22.541C21.125 23.5157 22.2326 24.1423 23.0633 23.5853L37.1854 14.326C38.3622 13.5602 38.4314 11.8893 37.2546 11.0539L23.1325 0.471761C22.3018 -0.154812 21.125 0.471761 21.125 1.51605Z" fill="#FF9B5A"/>
</svg>
